HIERARCHY
ROOT Hips
{
	OFFSET -0.179506 -22.333345 2.821913
	CHANNELS 6 Xposition Yposition Zposition Zrotation Yrotation Xrotation 
	JOINT LeftUpLeg
	{
		OFFSET 6.951974 -9.140623 -0.681533
		CHANNELS 3 Zrotation Yrotation Xrotation
		JOINT LeftLeg
		{
			OFFSET 3.427654 -37.519855 -0.449580
			CHANNELS 3 Zrotation Yrotation Xrotation
			JOINT LeftFoot
			{
				OFFSET -1.359570 -39.796059 -4.369333
				CHANNELS 3 Zrotation Yrotation Xrotation
				JOINT LeftToe
				{
					OFFSET 2.635814 -5.579078 11.928840
					CHANNELS 3 Zrotation Yrotation Xrotation
					End Site
					{
						OFFSET 0.000000 0.000000 0.000000
					}
				}
			}
		}
	}
	JOINT RightUpLeg
	{
		OFFSET -6.767048 -9.052170 -0.431982
		CHANNELS 3 Zrotation Yrotation Xrotation
		JOINT RightLeg
		{
			OFFSET -3.829005 -38.256897 -0.885003
			CHANNELS 3 Zrotation Yrotation Xrotation
			JOINT RightFoot
			{
				OFFSET 1.577377 -39.841461 -4.231180
				CHANNELS 3 Zrotation Yrotation Xrotation
				JOINT RightToe
				{
					OFFSET -2.537174 -4.814398 12.334795
					CHANNELS 3 Zrotation Yrotation Xrotation
					End Site
					{
						OFFSET 0.000000 0.000000 0.000000
					}
				}
			}
		}
	}
	JOINT Spine
	{
		OFFSET -0.253288 10.896323 -2.669631
		CHANNELS 3 Zrotation Yrotation Xrotation
		JOINT Spine1
		{
			OFFSET 0.548704 13.518043 0.109247
			CHANNELS 3 Zrotation Yrotation Xrotation
			JOINT Spine2
			{
				OFFSET 0.145701 5.292222 2.542457
				CHANNELS 3 Zrotation Yrotation Xrotation
				JOINT Neck
				{
					OFFSET -0.277840 21.387037 -4.285703
					CHANNELS 3 Zrotation Yrotation Xrotation
					JOINT Head
					{
						OFFSET 0.515184 6.496960 5.134897
						CHANNELS 3 Zrotation Yrotation Xrotation
						End Site
						{
							OFFSET 0.000000 0.000000 0.000000
						}
					}
				}
				JOINT LeftShoulder
				{
					OFFSET 7.884473 12.174932 -3.408961
					CHANNELS 3 Zrotation Yrotation Xrotation
					JOINT LeftArm
					{
						OFFSET 9.097692 3.046888 -0.886815
						CHANNELS 3 Zrotation Yrotation Xrotation
						JOINT LeftForeArm
						{
							OFFSET 25.961220 -1.277207 -2.745643
							CHANNELS 3 Zrotation Yrotation Xrotation
							JOINT LeftHand
							{
								OFFSET 24.923361 0.898606 -0.117091
								CHANNELS 3 Zrotation Yrotation Xrotation
								End Site
								{
									OFFSET 0.000000 0.000000 0.000000
								}
							}
						}
					}
				}
				JOINT RightShoulder
				{
					OFFSET -8.175920 11.883285 -3.861528
					CHANNELS 3 Zrotation Yrotation Xrotation
					JOINT RightArm
					{
						OFFSET -9.601238 3.255117 -0.914307
						CHANNELS 3 Zrotation Yrotation Xrotation
						JOINT RightForeArm
						{
							OFFSET -25.374195 -1.332924 -2.140099
							CHANNELS 3 Zrotation Yrotation Xrotation
							JOINT RightHand
							{
								OFFSET -25.529810 0.777228 -0.555919
								CHANNELS 3 Zrotation Yrotation Xrotation
								End Site
								{
									OFFSET 0.000000 0.000000 0.000000
								}
							}
						}
					}
				}
			}
		}
	}
}
MOTION
Frames: 18
Frame Time: 0.033333
291.463562 297.720551 88.008636 -47.278729 5.754707 86.680000 5.049768 -0.622848 18.800061 -4.836900 -12.681765 25.631119 -6.049062 13.245252 -0.001515 nan nan nan 3.784155 1.926497 -22.345696 6.980042 -5.473805 19.808663 1.197963 -6.498919 6.871353 nan nan nan -1.611405 -5.563409 1.170531 6.362372 -1.914621 6.819644 1.650419 -2.563941 -2.994342 2.187915 0.822264 3.991150 5.715105 -2.511203 -4.148871 -17.940345 5.040862 0.632237 -64.973112 -17.100114 17.348274 11.946310 -25.586868 -17.276552 -3.327156 -19.032017 -10.995959 14.368580 -9.294280 -0.742918 64.673607 -4.928712 2.519377 -12.462680 18.331223 -18.056596 2.309632 12.050678 -22.785133 
290.634796 297.249573 88.160278 -47.775357 5.902701 86.458980 5.548007 -0.409260 17.295580 -5.412830 -11.311946 28.676338 -5.684706 12.509617 2.403962 nan nan nan 4.262228 1.792746 -21.494448 7.118707 -5.086516 19.941650 1.093092 -6.244308 6.297128 nan nan nan -1.503145 -5.200777 1.743451 6.392808 -1.741576 6.492510 1.670093 -2.428085 -3.018629 2.359232 0.990677 3.561839 5.407194 -2.718256 -4.025981 -17.620678 5.396617 0.685586 -65.576489 -16.186575 17.476039 12.181183 -25.625932 -16.975370 -3.543257 -18.575988 -10.852537 14.466544 -9.265615 -0.617123 64.447450 -4.629439 2.746344 -12.277644 18.602888 -18.306742 2.390584 12.010314 -22.966335 
289.843079 296.653107 88.287186 -47.756802 5.821135 86.486350 5.530819 -0.765897 15.373943 -6.049995 -10.148479 31.828477 -5.319714 11.870062 4.661109 nan nan nan 4.210016 1.360501 -20.768159 7.390119 -4.988893 19.965413 0.657389 -5.957954 5.716206 nan nan nan -1.293802 -4.866958 1.736776 6.238040 -2.013253 6.525661 1.578656 -2.293629 -3.248394 2.286204 0.310952 3.703833 5.115179 -2.733099 -3.899790 -17.524033 5.629268 1.015078 -65.783604 -15.325298 17.408520 12.053861 -25.771668 -16.180147 -3.091994 -18.269731 -11.209585 14.270687 -9.218138 -0.471072 64.508616 -4.450219 2.859211 -12.021888 18.790206 -18.505576 1.781132 12.071561 -23.375820 
289.018738 296.024445 88.417686 -47.839728 5.819635 86.268242 5.617451 -1.056023 13.848561 -6.400786 -8.886865 34.332464 -5.071205 11.696984 7.736273 nan nan nan 4.283871 1.404381 -19.665563 7.487812 -4.936711 19.794109 0.366858 -5.878665 5.107310 nan nan nan -1.029930 -4.534186 1.920428 5.979016 -2.062819 6.392712 1.458863 -2.092780 -2.896430 2.101787 0.767247 2.722388 5.336494 -2.536407 -4.064620 -17.318017 5.828168 0.920168 -66.137757 -14.663435 17.391689 11.643782 -25.730468 -15.492056 -3.248434 -18.028642 -11.562628 14.422715 -9.431047 -0.829093 64.272661 -4.346850 2.772592 -11.687216 19.192834 -18.469196 2.201397 11.714218 -22.470100 
288.217316 295.533417 88.475616 -47.900897 6.116383 86.416346 6.317709 -1.238023 11.604360 -6.221687 -6.865107 36.679881 -4.831473 12.019155 11.082964 nan nan nan 4.751732 1.851294 -19.067499 7.437265 -5.039100 19.606339 0.191187 -6.021405 4.556595 nan nan nan -0.580941 -4.239395 2.287376 5.915589 -1.957720 5.415628 1.472506 -2.101802 -2.445077 2.003046 0.698225 2.353482 5.150875 -2.654843 -4.002233 -16.996975 6.332034 0.877911 -66.724416 -14.002309 17.313069 11.126932 -25.622548 -14.621550 -3.166515 -18.109370 -12.144191 14.060397 -9.838701 -0.788736 64.364220 -4.016681 2.824264 -11.269363 19.748532 -17.803144 2.085576 11.441314 -22.049220 
287.457367 294.965790 88.652344 -48.027584 6.142903 86.131237 6.510950 -1.328198 10.084253 -6.218949 -5.622791 38.832878 -4.732918 12.535489 13.155926 nan nan nan 4.926518 1.938394 -17.872915 7.442477 -5.079903 19.274054 0.144426 -5.873751 3.996313 nan nan nan -0.311216 -3.907189 2.637044 5.747201 -1.959892 5.199672 1.457612 -2.096706 -2.247892 1.858218 0.499598 2.638690 5.028306 -2.769289 -4.461367 -17.031890 6.617444 0.870352 -66.884450 -13.351542 17.199689 10.770903 -25.357776 -13.950083 -2.410596 -18.740773 -13.071882 13.911623 -9.599683 -0.699488 64.376688 -3.576810 3.010833 -11.081605 19.878011 -17.551424 1.275120 11.686350 -22.212377 
286.675262 294.460297 88.824280 -48.169996 6.316865 85.878539 7.052035 -1.368596 8.423474 -6.513388 -4.616961 41.383756 -5.152706 12.511825 13.604904 nan nan nan 5.352764 2.106277 -16.701553 7.299673 -5.156874 18.891782 0.221612 -5.699348 3.515363 nan nan nan -0.088053 -3.563926 2.978666 5.681865 -1.920192 4.826358 1.464762 -2.005154 -1.782133 1.804794 0.749339 2.648544 4.958910 -2.943740 -5.005801 -16.968512 6.757002 0.816266 -67.209689 -12.734704 17.156941 10.683721 -24.987616 -13.504124 -1.977514 -19.306073 -13.553887 14.003537 -9.333927 -0.843588 64.164038 -3.251999 3.095664 -10.835835 20.113685 -17.217242 0.863540 12.037429 -22.400946 
285.598145 293.539764 89.093018 -49.604376 5.993012 85.255570 6.722557 -0.406503 8.642545 -6.781385 -4.193350 42.077078 -5.259688 12.837185 13.208810 nan nan nan 5.550300 2.363475 -14.749808 7.015356 -4.497801 18.437487 0.259102 -5.021243 2.800388 nan nan nan 0.230454 -3.123956 1.602779 5.271968 -1.276627 6.981999 1.194254 -1.631299 -2.162060 2.081458 1.389433 3.369715 4.555251 -3.479934 -5.827447 -17.067684 6.917246 0.884329 -67.345789 -11.995612 16.633242 10.711005 -24.536266 -13.897451 -4.592663 -19.431558 -12.714302 14.025215 -8.737052 -0.337161 64.140475 -2.764457 2.871445 -10.871572 20.258534 -17.401732 2.581592 12.346249 -21.878827 
284.909302 293.105591 89.214867 -49.472417 6.217299 85.031858 7.243773 -0.492177 6.827832 -7.337170 -3.823954 44.771519 -5.693277 12.486580 11.661816 nan nan nan 6.157925 2.272227 -13.611324 6.707878 -4.077220 18.057429 0.413639 -5.168231 2.125926 nan nan nan 0.608756 -2.891338 2.408284 5.199357 -1.442809 6.488752 1.210184 -1.584448 -2.143075 2.207174 1.141124 3.337796 4.031914 -3.927251 -5.645427 -16.905515 7.315242 0.913763 -67.766836 -11.664926 16.027496 10.442838 -24.085215 -14.498837 -12.070766 -20.045231 -12.424126 13.741546 -8.321358 -0.149385 64.355163 -1.943370 2.552362 -10.746175 20.143221 -17.314662 8.307022 13.348389 -21.666138 
284.262299 292.676147 89.334488 -49.150695 6.347436 84.947937 7.541839 -0.993953 4.838044 -7.875020 -3.142851 47.148972 -5.731750 11.813925 9.813893 nan nan nan 6.515098 1.998273 -12.623132 6.616087 -3.648861 17.570223 0.403316 -5.352980 1.631667 nan nan nan 0.744723 -2.430882 3.278590 5.201043 -1.598774 5.414337 1.277054 -1.682525 -1.520004 2.143407 1.274135 2.508343 3.831581 -3.947132 -5.693996 -16.824982 7.547156 0.565929 -68.110625 -11.043358 16.130410 10.227464 -23.765184 -14.097490 -11.979470 -20.313392 -12.675578 13.738566 -8.217170 -0.619072 64.103885 -1.768652 2.804970 -10.294808 20.616867 -16.957085 7.844507 13.723558 -22.151441 
283.683838 292.140533 89.450912 -48.418299 6.499692 84.942062 7.576558 -2.090125 2.661662 -8.053048 -2.331036 49.420126 -5.482163 11.324477 8.019415 nan nan nan 6.573052 1.507688 -11.602526 6.712571 -3.733885 16.840655 0.614966 -5.552899 1.194551 nan nan nan 1.226374 -2.157123 4.000186 5.099955 -2.141778 4.328842 1.153171 -1.693905 -0.863302 1.821750 1.099982 1.993597 3.828087 -3.843160 -5.805621 -16.779043 7.784016 0.447183 -68.413463 -10.442098 16.095004 10.074874 -23.655649 -13.706137 -11.974834 -20.122590 -12.505323 13.699931 -8.016753 -0.771268 63.858479 -1.483395 2.988732 -9.946162 21.253284 -16.176140 7.611498 13.613183 -21.432611 
283.103699 291.770386 89.594078 -48.275675 6.398702 85.041572 7.610030 -2.493462 0.395317 -8.347619 -1.634510 51.338621 -5.060147 11.047723 6.477409 nan nan nan 6.712974 1.538134 -10.980269 6.457649 -3.581876 16.404304 0.894185 -5.808592 0.826609 nan nan nan 1.090134 -1.690470 4.772914 5.136186 -2.187257 3.345132 1.243044 -1.624563 -0.541011 1.573405 0.732251 1.856978 3.724264 -3.840818 -5.962017 -16.658388 8.064484 0.361672 -68.688412 -9.859185 16.251581 9.865334 -23.568064 -13.024146 -11.260497 -19.814776 -12.667964 13.929974 -7.903638 -0.808219 63.410639 -1.160339 3.370075 -9.591264 21.949180 -14.839580 6.788735 13.165626 -20.460514 
282.495148 291.345825 89.741585 -48.236213 6.245683 85.023453 7.450601 -2.792688 -1.547116 -8.548396 -1.151909 52.808788 -4.630890 10.938202 5.100171 nan nan nan 6.795550 1.552650 -10.055815 6.291704 -3.100925 15.829171 1.122378 -6.049811 0.451815 nan nan nan 1.023836 -1.113248 5.487068 5.063164 -2.141137 2.550016 1.241757 -1.540291 -0.305073 1.534360 0.295497 1.779340 3.638211 -3.945567 -5.988119 -16.560935 8.273408 0.311110 -68.847977 -9.423281 16.349195 9.580064 -23.205927 -12.363391 -11.180372 -20.110144 -13.160183 14.063238 -7.914380 -0.911898 63.220962 -0.863451 3.595905 -9.327810 22.555757 -13.580653 6.152392 12.950157 -19.521948 
281.854004 290.845154 89.893677 -48.229871 6.045650 84.869927 7.199227 -2.930990 -3.171809 -8.567837 -0.750143 53.831501 -4.248203 10.837235 3.884403 nan nan nan 6.790342 1.452264 -8.904916 6.141690 -2.684034 15.188170 1.330674 -6.139893 0.001603 nan nan nan 0.984747 -0.576074 5.934454 4.911336 -2.128071 2.277302 1.152317 -1.356562 -0.211264 1.731475 -0.098336 1.833195 3.579338 -4.161621 -6.052648 -16.232387 8.303881 0.439653 -69.189371 -9.069111 16.419199 9.488596 -22.721518 -11.862425 -11.181819 -20.475047 -13.813398 14.022929 -7.735733 -1.018933 63.374207 -0.715474 3.832406 -9.326080 23.352090 -12.943234 5.905281 13.058224 -19.178152 
281.173065 290.389343 90.036461 -48.352514 5.949531 84.864246 7.183549 -2.857907 -4.915526 -8.368059 -0.288601 54.664862 -3.910993 10.584203 2.614707 nan nan nan 7.035175 1.550193 -7.909073 5.796159 -2.308660 14.497347 1.586434 -6.219281 -0.313968 nan nan nan 0.917484 -0.144382 6.193284 4.845720 -2.021637 1.960722 1.114957 -1.078835 0.023806 1.964178 -0.354085 1.663943 3.344731 -4.419384 -6.007741 -15.795965 8.577714 0.369578 -69.719286 -8.587202 16.562504 9.659829 -22.363730 -11.419211 -11.396934 -19.929782 -13.661708 14.051976 -7.622115 -1.114482 63.296129 -0.444849 4.227418 -9.180704 24.078582 -12.619965 6.259980 13.206214 -19.233620 
280.518341 289.911652 90.235435 -48.347123 5.728331 84.594946 6.903625 -3.885953 -6.208410 -8.172959 0.783997 55.026799 -3.446188 10.643156 1.462984 nan nan nan 7.054971 1.349098 -6.492645 5.588774 -1.772617 13.570033 1.741898 -6.351716 -0.478254 nan nan nan 0.847325 0.504741 6.793052 4.706644 -2.162186 1.781379 1.106254 -0.955072 0.081200 2.027092 -0.794775 1.492470 3.164612 -4.450577 -6.047455 -15.426999 8.709483 0.261522 -70.166426 -7.634426 16.693204 10.451429 -22.801216 -10.993305 -11.399272 -19.183448 -12.823299 14.154474 -7.318834 -1.315101 63.123090 -0.029392 4.584201 -9.156632 24.288285 -13.009084 7.583095 13.288883 -18.990234 
279.853546 289.363007 90.348900 -48.451501 5.627088 84.648858 6.721345 -2.994130 -7.932694 -7.730071 0.482752 55.697164 -3.120641 10.474714 0.096581 nan nan nan 7.114784 1.006150 -5.478420 5.438443 -1.212605 12.779225 1.980037 -6.341612 -0.713632 nan nan nan 1.032430 0.834775 6.771101 4.543116 -1.991412 1.364403 1.031880 -0.756353 0.674871 1.986292 -0.923746 1.398019 2.945858 -4.684492 -6.139973 -15.342350 8.774496 0.192638 -70.401048 -6.863217 16.486490 10.303820 -22.981834 -10.694397 -9.924716 -18.750204 -13.116104 14.000761 -7.058587 -1.310961 63.009925 0.391463 4.469033 -8.857297 24.830601 -12.674275 6.647394 13.363065 -19.509197 
279.198547 288.992615 90.591873 -48.527957 5.194418 84.204742 6.313089 -3.057868 -9.019557 -7.614790 0.749443 55.797650 -2.790378 10.814496 -1.227356 nan nan nan 6.967273 0.852318 -3.929820 5.203393 -0.503023 11.884435 2.252068 -6.618782 -0.950461 nan nan nan 0.390913 1.598284 7.930595 4.541577 -1.932524 0.945553 1.215801 -0.648045 0.537378 1.931840 -1.335893 1.018953 2.974272 -4.657485 -5.915933 -15.265695 9.334722 0.265219 -70.317303 -6.773926 16.540832 9.790748 -22.726744 -10.302927 -10.321614 -18.251072 -13.315091 14.342189 -7.169326 -1.466575 62.614923 0.977416 4.932154 -8.814893 25.119775 -12.956262 6.341131 13.527047 -19.935984 
